<mxfile host="app.diagrams.net" agent="Mozilla/5.0 (Macintosh; Intel Mac OS X 10_15_7) AppleWebKit/537.36 (KHTML, like Gecko) Chrome/136.0.0.0 Safari/537.36 Edg/136.0.0.0" version="26.3.0">
  <diagram name="第 1 页" id="ZkjXAJqnmbgwYeV1d1LD">
    <mxGraphModel dx="1418" dy="706" grid="1" gridSize="10" guides="1" tooltips="1" connect="1" arrows="1" fold="1" page="1" pageScale="1" pageWidth="827" pageHeight="1169" math="0" shadow="0">
      <root>
        <mxCell id="0" />
        <mxCell id="1" parent="0" />
        <mxCell id="YQ0orauJafsWD9GcfiRg-1" value="" style="rounded=0;whiteSpace=wrap;html=1;" vertex="1" parent="1">
          <mxGeometry x="210" y="480" width="470" height="80" as="geometry" />
        </mxCell>
        <mxCell id="YQ0orauJafsWD9GcfiRg-2" value="存储层" style="text;html=1;align=center;verticalAlign=middle;whiteSpace=wrap;rounded=0;" vertex="1" parent="1">
          <mxGeometry x="210" y="505" width="60" height="30" as="geometry" />
        </mxCell>
        <mxCell id="YQ0orauJafsWD9GcfiRg-3" value="MySQL&lt;br&gt;项目源代码仓库配置" style="rounded=0;whiteSpace=wrap;html=1;" vertex="1" parent="1">
          <mxGeometry x="294" y="490" width="120" height="60" as="geometry" />
        </mxCell>
        <mxCell id="YQ0orauJafsWD9GcfiRg-4" value="Neo4j&lt;br&gt;用例预分析库" style="rounded=0;whiteSpace=wrap;html=1;" vertex="1" parent="1">
          <mxGeometry x="470" y="490" width="120" height="60" as="geometry" />
        </mxCell>
      </root>
    </mxGraphModel>
  </diagram>
</mxfile>
